<?xml version="1.0" encoding="UTF-8"?>
<svg version="1.1" xmlns="http://www.w3.org/2000/svg" width="224" height="224">
<path d="M0 0 C73.92 0 147.84 0 224 0 C224 73.92 224 147.84 224 224 C150.08 224 76.16 224 0 224 C0 150.08 0 76.16 0 0 Z " fill="#FEFEFE" transform="translate(0,0)"/>
<path d="M0 0 C0.94770264 0.01764404 1.89540527 0.03528809 2.87182617 0.0534668 C5.81147698 0.11716533 8.74885697 0.21330115 11.6875 0.3125 C13.54166598 0.35679967 15.39583263 0.40107133 17.25 0.4453125 C19.00009838 0.50226129 20.75010774 0.56203511 22.5 0.625 C23.29253174 0.64715576 24.08506348 0.66931152 24.90161133 0.69213867 C37.96205469 1.30761016 47.60265878 7.21326125 56.6875 16.3125 C64.67538402 25.40686511 69.06649557 34.83210688 72.6875 46.3125 C73.28498047 48.18035156 73.28498047 48.18035156 73.89453125 50.0859375 C78.88564603 67.27064382 78.6189838 87.15173179 73.6875 104.3125 C73.3471875 105.55902344 73.006875 106.80554688 72.65625 108.08984375 C68.38724889 122.75350015 59.54736793 138.6126823 45.7734375 146.2890625 C45.08507812 146.62679687 44.39671875 146.96453125 43.6875 147.3125 C42.91664063 147.69148437 42.14578125 148.07046875 41.3515625 148.4609375 C35.90900028 150.88176171 30.975195 151.83758011 25.03515625 152.13671875 C22.53416104 152.22777384 22.53416104 152.22777384 19.6875 153.3125 C15.70382041 153.88159708 11.70373801 154.09232045 7.6875 154.3125 C6.92034668 154.35858398 6.15319336 154.40466797 5.36279297 154.45214844 C-5.54798213 155.03799057 -15.3019519 155.47562431 -24.3125 148.3125 C-24.6425 147.3225 -24.9725 146.3325 -25.3125 145.3125 C-26.281875 145.498125 -27.25125 145.68375 -28.25 145.875 C-31.15468966 145.88666542 -32.15959678 145.43944917 -34.4296875 143.5546875 C-35.85749354 142.05574522 -37.25444027 140.52657651 -38.61328125 138.96484375 C-45.74505928 131.95691714 -51.0582482 128.5859375 -61.23828125 128.5859375 C-62.37652344 128.61945313 -63.51476562 128.65296875 -64.6875 128.6875 C-66.98659124 128.73853421 -69.28628606 128.76812039 -71.5859375 128.7734375 C-72.59060059 128.80228027 -73.59526367 128.83112305 -74.63037109 128.86083984 C-77.3125 128.3125 -77.3125 128.3125 -79.43418884 126.17478943 C-81.62156721 122.84152382 -81.88872719 120.92257861 -82.04760742 116.9675293 C-82.10282562 115.72844818 -82.15804382 114.48936707 -82.2149353 113.21273804 C-82.26322983 111.28212021 -82.26322983 111.28212021 -82.3125 109.3125 C-82.34590485 108.08012604 -82.37930969 106.84775208 -82.41372681 105.57803345 C-82.49233985 101.66261003 -82.53116456 97.74808548 -82.55078125 93.83203125 C-82.55689454 92.78123162 -82.55689454 92.78123162 -82.56313133 91.70920372 C-82.58372655 88.02285459 -82.59815722 84.33654007 -82.60766602 80.65014648 C-82.61886661 76.85263098 -82.65349331 73.05567967 -82.69283772 69.25836658 C-82.71890452 66.32017399 -82.72734732 63.38212093 -82.73094749 60.44382286 C-82.7358145 59.04234552 -82.74743193 57.64087446 -82.76598549 56.23951149 C-82.79023014 54.29238587 -82.78700667 52.34497635 -82.7824707 50.39770508 C-82.78833694 49.29187576 -82.79420319 48.18604645 -82.80024719 47.04670715 C-82.3125 44.3125 -82.3125 44.3125 -80.51750183 42.45805359 C-76.73490138 40.49289807 -72.35825423 40.70603038 -68.15625 40.66796875 C-65.74014541 40.58569526 -65.74014541 40.58569526 -62.3125 39.3125 C-60.9925 36.3425 -59.6725 33.3725 -58.3125 30.3125 C-45.9375 29.3225 -45.9375 29.3225 -33.3125 28.3125 C-32.6525 25.3425 -31.9925 22.3725 -31.3125 19.3125 C-27.64545833 10.93461453 -21.16294496 4.64987144 -12.82373047 1.11083984 C-8.54591215 -0.24911212 -4.44964 -0.1485215 0 0 Z " fill="#494949" transform="translate(116.3125,34.6875)"/>
<path d="M0 0 C10.97123052 4.87610245 16.43416079 15.46534135 21 26 C26.22857605 39.71240881 28.39483817 52.33987027 28.375 67.0625 C28.37445618 67.74464569 28.37391235 68.42679138 28.37335205 69.12960815 C28.28941053 92.06948193 22.63393074 114.17969469 6 131 C3 133 3 133 0.5625 132.875 C-2.53695936 131.81664802 -3.97315149 130.55232776 -6 128 C-6 127.01 -6 126.02 -6 125 C-6.62455078 125.06058594 -7.24910156 125.12117188 -7.89257812 125.18359375 C-10.76135752 125.4596421 -13.6306586 125.72985844 -16.5 126 C-17.48226562 126.09539062 -18.46453125 126.19078125 -19.4765625 126.2890625 C-22.31621505 126.55409674 -25.15614063 126.78524339 -28 127 C-28.78640869 127.07138184 -29.57281738 127.14276367 -30.38305664 127.21630859 C-32.50390625 127.3359375 -32.50390625 127.3359375 -36 127 C-38.05859375 125.1015625 -38.05859375 125.1015625 -39.4375 122.625 C-39.91058594 121.81289062 -40.38367188 121.00078125 -40.87109375 120.1640625 C-41.59210487 118.78191662 -42.30283657 117.39432687 -43 116 C-47.05163214 114.13843929 -50.7407659 113.88021359 -55.125 113.6875 C-60.6444753 113.29764858 -60.6444753 113.29764858 -63.6875 110.75 C-65.97696849 105.95301841 -66.11487803 101.56950147 -66.0625 96.30078125 C-66.05476563 95.00849609 -66.04703125 93.71621094 -66.0390625 92.38476562 C-66.02051511 90.3555352 -66.00014072 88.32632917 -65.97949219 86.29711914 C-65.91352172 79.19227329 -65.88798913 72.19598212 -66.76904297 65.13745117 C-67.87829829 54.87156287 -66.63284109 44.27236694 -66 34 C-62.90398498 33.1914682 -59.93976152 32.73129382 -56.75 32.4375 C-55.85796875 32.35371094 -54.9659375 32.26992187 -54.046875 32.18359375 C-53.37140625 32.12300781 -52.6959375 32.06242187 -52 32 C-52 32.66 -52 33.32 -52 34 C-52.66 34 -53.32 34 -54 34 C-53.67 35.65 -53.34 37.3 -53 39 C-50.98863724 36.44008376 -49.37154504 33.95409701 -48 31 C-47.34 31 -46.68 31 -46 31 C-46.66 29.68 -47.32 28.36 -48 27 C-46.50292969 25.02441406 -46.50292969 25.02441406 -44 23 C-41.17982573 22.65076404 -38.76279737 22.53150791 -35.953125 22.609375 C-34.79632233 22.61786469 -34.79632233 22.61786469 -33.6161499 22.62652588 C-31.16012721 22.64886411 -28.70557945 22.69905237 -26.25 22.75 C-24.58205237 22.77006846 -22.91408179 22.78831863 -21.24609375 22.8046875 C-17.16349677 22.84872008 -13.08199819 22.91772717 -9 23 C-9.33 22.67 -9.66 22.34 -10 22 C-10.25345212 13.88953201 -7.03816556 7.36661589 -1.6875 1.4375 C-1.130625 0.963125 -0.57375 0.48875 0 0 Z M-5 123 C-5.33 123.66 -5.66 124.32 -6 125 C-5.01 124.67 -4.02 124.34 -3 124 C-3.66 123.67 -4.32 123.34 -5 123 Z " fill="#464646" transform="translate(129,45)"/>
<path d="M0 0 C0 0.66 0 1.32 0 2 C0.99 2 1.98 2 3 2 C2.71883676 8.18559136 0.32301166 12.64227914 -2.625 18.03515625 C-4.03391264 21.07312412 -4.60641342 23.68895286 -5 27 C-4.34 27.33 -3.68 27.66 -3 28 C-4.55409427 29.55409427 -6.03982284 29.12971151 -8.19921875 29.1328125 C-9.50983276 29.13571289 -9.50983276 29.13571289 -10.84692383 29.13867188 C-11.78431396 29.13416016 -12.7217041 29.12964844 -13.6875 29.125 C-14.63326904 29.12306641 -15.57903809 29.12113281 -16.5534668 29.11914062 C-24.07234991 29.0731887 -31.51172279 28.70477903 -39 28 C-40.41385911 30.38162009 -40.41385911 30.38162009 -41 33 C-41 33.99 -41 34.98 -41 36 C-41.66 36 -42.32 36 -43 36 C-43.433125 37.11375 -43.433125 37.11375 -43.875 38.25 C-44.82302644 40.56739797 -45.84845911 42.77917115 -47 45 C-47.99 44.505 -47.99 44.505 -49 44 C-49 42.35 -49 40.7 -49 39 C-48.34 39 -47.68 39 -47 39 C-47 38.34 -47 37.68 -47 37 C-48.2375 37.309375 -49.475 37.61875 -50.75 37.9375 C-52.16666667 38.29166667 -53.58333333 38.64583333 -55 39 C-55.70640625 39.20753906 -56.4128125 39.41507813 -57.140625 39.62890625 C-59 40 -59 40 -61 39 C-61.0251057 42.91030885 -61.04304746 46.82058515 -61.05493164 50.73095703 C-61.06231093 52.6995611 -61.07503058 54.66814286 -61.08789062 56.63671875 C-61.10271161 62.47618751 -61.0452508 68.23904034 -60.4921875 74.0546875 C-59.73171054 82.06423792 -59.9881247 90.0702477 -60.12695312 98.10546875 C-60.13791016 99.29527344 -60.14886719 100.48507813 -60.16015625 101.7109375 C-60.17699463 102.77618652 -60.19383301 103.84143555 -60.21118164 104.93896484 C-59.8861227 109.65062835 -58.61012183 113.08481726 -56 117 C-53.34716146 117.47409911 -53.34716146 117.47409911 -50.3125 117.5 C-45.22033225 117.84677845 -41.3602946 118.12220557 -37 121 C-34.69304094 124.18555593 -32.79154325 127.50222508 -31 131 C-29.75605469 130.9278125 -28.51210937 130.855625 -27.23046875 130.78125 C-18.48124723 130.28819995 -9.76731492 129.82268352 -1 130 C-0.67 131.32 -0.34 132.64 0 134 C-9.24 134.99 -18.48 135.98 -28 137 C-28.33 138.32 -28.66 139.64 -29 141 C-31.4375 139.4375 -31.4375 139.4375 -34 137 C-34.38749213 134.67504723 -34.71758117 132.3400417 -35 130 C-37.30381005 125.46168677 -37.30381005 125.46168677 -41.5625 123.0625 C-44.14134384 122.85798068 -44.14134384 122.85798068 -47 124 C-46.01 124.66 -45.02 125.32 -44 126 C-44.33 126.66 -44.66 127.32 -45 128 C-47.64 126.68 -50.28 125.36 -53 124 C-52.01 123.67 -51.02 123.34 -50 123 C-50 122.34 -50 121.68 -50 121 C-51.03640625 121.32097656 -52.0728125 121.64195312 -53.140625 121.97265625 C-59.27727178 123.49870784 -65.4595678 123.40716029 -71.75 123.4375 C-72.96816406 123.47037109 -74.18632813 123.50324219 -75.44140625 123.53710938 C-76.61058594 123.54419922 -77.77976562 123.55128906 -78.984375 123.55859375 C-80.04366211 123.57204834 -81.10294922 123.58550293 -82.19433594 123.59936523 C-86.0414653 122.77751503 -86.87310948 121.2508421 -89 118 C-89.60099792 114.99345398 -89.60099792 114.99345398 -89.73510742 111.6550293 C-89.79032562 110.41594818 -89.84554382 109.17686707 -89.9024353 107.90023804 C-89.95072983 105.96962021 -89.95072983 105.96962021 -90 104 C-90.03340485 102.76762604 -90.06680969 101.53525208 -90.10122681 100.26553345 C-90.17983985 96.35011003 -90.21866456 92.43558548 -90.23828125 88.51953125 C-90.24439454 87.46873162 -90.24439454 87.46873162 -90.25063133 86.39670372 C-90.27122655 82.71035459 -90.28565722 79.02404007 -90.29516602 75.33764648 C-90.30636661 71.54013098 -90.34099331 67.74317967 -90.38033772 63.94586658 C-90.40640452 61.00767399 -90.41484732 58.06962093 -90.41844749 55.13132286 C-90.4233145 53.72984552 -90.43493193 52.32837446 -90.45348549 50.92701149 C-90.47773014 48.97988587 -90.47450667 47.03247635 -90.4699707 45.08520508 C-90.47583694 43.97937576 -90.48170319 42.87354645 -90.48774719 41.73420715 C-90 39 -90 39 -88.20500183 37.14555359 C-84.42240138 35.18039807 -80.04575423 35.39353038 -75.84375 35.35546875 C-73.42764541 35.27319526 -73.42764541 35.27319526 -70 34 C-68.02 29.545 -68.02 29.545 -66 25 C-53.625 24.01 -53.625 24.01 -41 23 C-40.34 20.03 -39.68 17.06 -39 14 C-36.93049798 9.51607895 -33.93731936 5.01089128 -30 2 C-26.625 0.875 -26.625 0.875 -23 0 C-22.030625 -0.37125 -21.06125 -0.7425 -20.0625 -1.125 C-13.11478537 -3.11006132 -6.82742336 -1.77007272 0 0 Z M0 128 C0.66 128.33 1.32 128.66 2 129 C1.01 129 0.02 129 -1 129 C-0.67 128.67 -0.34 128.34 0 128 Z " fill="#333333" transform="translate(124,40)"/>
<path d="M0 0 C10.97123052 4.87610245 16.43416079 15.46534135 21 26 C26.22857605 39.71240881 28.39483817 52.33987027 28.375 67.0625 C28.37445618 67.74464569 28.37391235 68.42679138 28.37335205 69.12960815 C28.28941053 92.06948193 22.63393074 114.17969469 6 131 C3 133 3 133 0.4375 132.875 C-2 132 -2 132 -3.375 130.375 C-4.25054514 127.04792848 -3.5722118 124.37604964 -3 121 C-3 119.845 -3 118.69 -3 117.5 C-3 114 -3 114 -2.38085938 110.7890625 C-1.94470354 106.44987107 -2.77446645 103.00796691 -3.90625 98.875 C-6.22812883 89.44135588 -6.61319943 80.36951721 -6.52148438 70.68652344 C-6.50000828 68.0010355 -6.52143944 65.31822117 -6.546875 62.6328125 C-6.56113553 52.23308371 -5.46845269 42.75752303 -2.85742188 32.6875 C-2.1352471 29.58165495 -1.63212248 27.15158068 -2 24 C-4.5654594 21.4345406 -6.47686668 21.45953913 -10 21 C-9.571802 13.14970325 -6.97521451 7.29685932 -1.6875 1.4375 C-1.130625 0.963125 -0.57375 0.48875 0 0 Z " fill="#FBFBFB" transform="translate(129,45)"/>
<path d="M0 0 C0 0.33 0 0.66 0 1 C-7.92 1.495 -7.92 1.495 -16 2 C-16.06829997 10.45938959 -16.12311401 18.91855787 -16.15543652 27.37815094 C-16.1709647 31.30803327 -16.19196166 35.23771407 -16.22631836 39.16748047 C-16.25937843 42.97359643 -16.27694902 46.77952097 -16.28463173 50.58576965 C-16.29009298 52.0239411 -16.30075153 53.46210439 -16.31719017 54.90019226 C-16.41871001 64.16628074 -15.57746003 72.72553002 -13.64595032 81.77722168 C-13 85 -13 85 -13 88 C-16.582906 88.14533755 -20.16505417 88.23407931 -23.75 88.3125 C-24.76578125 88.35439453 -25.7815625 88.39628906 -26.828125 88.43945312 C-27.8078125 88.45556641 -28.7875 88.47167969 -29.796875 88.48828125 C-31.14797363 88.52755737 -31.14797363 88.52755737 -32.52636719 88.56762695 C-36.10548736 87.74632273 -37.00385268 86.01962556 -39 83 C-39.60099792 79.99345398 -39.60099792 79.99345398 -39.73510742 76.6550293 C-39.79032562 75.41594818 -39.84554382 74.17686707 -39.9024353 72.90023804 C-39.95072983 70.96962021 -39.95072983 70.96962021 -40 69 C-40.03340485 67.76762604 -40.06680969 66.53525208 -40.10122681 65.26553345 C-40.17983985 61.35011003 -40.21866456 57.43558548 -40.23828125 53.51953125 C-40.24235678 52.81899817 -40.2464323 52.11846508 -40.25063133 51.39670372 C-40.27122655 47.71035459 -40.28565722 44.02404007 -40.29516602 40.33764648 C-40.30636661 36.54013098 -40.34099331 32.74317967 -40.38033772 28.94586658 C-40.40640452 26.00767399 -40.41484732 23.06962093 -40.41844749 20.13132286 C-40.4233145 18.72984552 -40.43493193 17.32837446 -40.45348549 15.92701149 C-40.47773014 13.97988587 -40.47450667 12.03247635 -40.4699707 10.08520508 C-40.47583694 8.97937576 -40.48170319 7.87354645 -40.48774719 6.73420715 C-40 4 -40 4 -38.18522644 2.16532898 C-35.09527411 0.51753133 -31.99342262 0.16646792 -28.5625 -0.1875 C-27.50494507 -0.30702026 -27.50494507 -0.30702026 -26.42602539 -0.42895508 C-17.60219522 -1.35396193 -8.75221143 -1.62831841 0 0 Z " fill="#3A3A3A" transform="translate(74,75)"/>
<path d="M0 0 C2.97 0 5.94 0 9 0 C8.67 0.99 8.34 1.98 8 3 C7.76640519 5.8377444 7.57831545 8.65761398 7.4375 11.5 C7.3957666 12.31227051 7.3540332 13.12454102 7.31103516 13.96142578 C6.92707538 21.8333847 6.73091156 29.56863812 7.51171875 37.421875 C8.22066996 45.65050263 8.01558579 53.85548922 7.87304688 62.10546875 C7.85661133 63.89017578 7.85661133 63.89017578 7.83984375 65.7109375 C7.81458618 67.30881104 7.81458618 67.30881104 7.78881836 68.93896484 C8.1138773 73.65062835 9.38987817 77.08481726 12 81 C14.65283854 81.47409911 14.65283854 81.47409911 17.6875 81.5 C22.77966775 81.84677845 26.6397054 82.12220557 31 85 C33.30695906 88.18555593 35.20845675 91.50222508 37 95 C38.24394531 94.9278125 39.48789063 94.855625 40.76953125 94.78125 C49.51875277 94.28819995 58.23268508 93.82268352 67 94 C67.33 95.32 67.66 96.64 68 98 C54.14 99.485 54.14 99.485 40 101 C39.505 102.98 39.505 102.98 39 105 C36.5625 103.4375 36.5625 103.4375 34 101 C33.61250787 98.67504723 33.28241883 96.3400417 33 94 C30.69618995 89.46168677 30.69618995 89.46168677 26.4375 87.0625 C23.85865616 86.85798068 23.85865616 86.85798068 21 88 C22.485 88.99 22.485 88.99 24 90 C23.67 90.66 23.34 91.32 23 92 C20.36 90.68 17.72 89.36 15 88 C16.485 87.505 16.485 87.505 18 87 C18 86.34 18 85.68 18 85 C16.1746875 85.495 16.1746875 85.495 14.3125 86 C11.11555555 86.86696799 8.30676363 87.03831153 5 87 C0.25441948 70.54400563 0.48288071 54.15466422 0.66705322 37.20227051 C0.69461735 34.23340879 0.70291912 31.26462425 0.71061993 28.2956543 C0.72056281 24.73872578 0.74038891 21.18187586 0.76171875 17.625 C0.7651145 16.95311646 0.76851025 16.28123291 0.7720089 15.58898926 C0.78357188 13.69730599 0.80309331 11.80567639 0.82299805 9.9140625 C0.83284225 8.8410791 0.84268646 7.7680957 0.85282898 6.66259766 C1 4 1 4 2 1 C1.34 0.67 0.68 0.34 0 0 Z M68 92 C68.66 92.33 69.32 92.66 70 93 C69.01 93 68.02 93 67 93 C67.33 92.67 67.66 92.34 68 92 Z " fill="#2E2E2E" transform="translate(56,76)"/>
<path d="M0 0 C0 0.33 0 0.66 0 1 C-7.92 1.495 -7.92 1.495 -16 2 C-16 29.06 -16 56.12 -16 84 C-16.66 84 -17.32 84 -18 84 C-20.76627591 73.76477913 -23.08116426 63.64483472 -22.96606445 53 C-23.01843871 49.91331016 -23.52614277 46.92216526 -24 43.875 C-25.11734408 36.05739518 -25.14821847 28.33645969 -25.01367188 20.45068359 C-25.00013672 19.55559082 -24.98660156 18.66049805 -24.97265625 17.73828125 C-24.95468994 16.94462158 -24.93672363 16.15096191 -24.91821289 15.33325195 C-24.95345934 12.53224286 -24.95345934 12.53224286 -26 8 C-30.62 8 -35.24 8 -40 8 C-39.67 6.35 -39.34 4.7 -39 3 C-35.54029537 0.69353025 -32.64427192 0.33363159 -28.625 -0.125 C-27.91545166 -0.20919189 -27.20590332 -0.29338379 -26.47485352 -0.38012695 C-17.6325835 -1.356665 -8.77616065 -1.63277407 0 0 Z " fill="#484848" transform="translate(74,75)"/>
<path d="M0 0 C0.33 1.32 0.66 2.64 1 4 C2.32 4.33 3.64 4.66 5 5 C4.01 4.01 3.02 3.02 2 2 C7.08142624 0.79423784 7.08142624 0.79423784 10 1 C14.36111674 4.79227543 15.79415874 8.29965951 17 14 C17 14.66 17 15.32 17 16 C18.32 16.66 19.64 17.32 21 18 C21 17.01 21 16.02 21 15 C24.33270874 14.66022275 27.66624786 14.32936937 31 14 C32.40185547 13.85691406 32.40185547 13.85691406 33.83203125 13.7109375 C39.24435978 13.18105918 44.56265756 12.71577528 50 13 C52 14.875 52 14.875 53 17 C53 17.66 53 18.32 53 19 C54.32 18.67 55.64 18.34 57 18 C54.33350656 21.45075621 51.12700732 22.04194473 47 23 C46.01 23 45.02 23 44 23 C44 23.66 44 24.32 44 25 C41.03 25.495 41.03 25.495 38 26 C39.65 26.33 41.3 26.66 43 27 C43 27.33 43 27.66 43 28 C33.40604354 28.83560266 25.99634586 27.66637612 18 22 C17.67 21.01 17.34 20.02 17 19 C16.030625 19.185625 15.06125 19.37125 14.0625 19.5625 C11.15781034 19.57416542 10.15290322 19.12694917 7.8828125 17.2421875 C6.38074178 15.66528051 4.89439367 14.07328759 3.421875 12.46875 C-0.28635519 8.68874761 -4.57404209 5.87363864 -9 3 C-8.67 2.34 -8.34 1.68 -8 1 C-5.30114269 0.42577504 -2.76207303 0 0 0 Z " fill="#2D2D2D" transform="translate(74,161)"/>
<path d="M0 0 C1.20857581 5.70447784 1.18368773 11.32272934 1.1875 17.125 C1.19974609 18.11371094 1.21199219 19.10242188 1.22460938 20.12109375 C1.22750977 21.55001953 1.22750977 21.55001953 1.23046875 23.0078125 C1.23457764 23.87035645 1.23868652 24.73290039 1.24291992 25.62158203 C0.98246215 28.17171233 0.28381454 29.80126486 -1 32 C-1.66 32 -2.32 32 -3 32 C-3.33 31.67 -3.66 31.34 -4 31 C-4.66 31.66 -5.32 32.32 -6 33 C-6.66 32.67 -7.32 32.34 -8 32 C-8 28.37 -8 24.74 -8 21 C-8.66 21.33 -9.32 21.66 -10 22 C-9.98839844 22.76183594 -9.97679687 23.52367188 -9.96484375 24.30859375 C-9.90952706 30.63840322 -10.1634074 36.72555549 -11 43 C-11.66 43 -12.32 43 -13 43 C-13.33218192 46.00259517 -13.33218192 46.00259517 -11.5 47.6875 C-11.005 48.120625 -10.51 48.55375 -10 49 C-11.375 50.5 -11.375 50.5 -13 52 C-13.66 52 -14.32 52 -15 52 C-15 35.17 -15 18.34 -15 1 C-1 0 -1 0 0 0 Z " fill="#383837" transform="translate(49,82)"/>
<path d="M0 0 C4.46590705 0.11863817 8.93161173 0.24291148 13.3972168 0.37231445 C14.91507755 0.41551548 16.43298226 0.45720048 17.95092773 0.49731445 C20.13799259 0.55537812 22.32483918 0.61896656 24.51171875 0.68359375 C26.48338013 0.73858032 26.48338013 0.73858032 28.49487305 0.79467773 C31.44699698 0.96760636 34.12950496 1.32160714 37 2 C37.09765625 8.15234375 37.09765625 8.15234375 37 10 C36 11 36 11 33.12011719 11.03759766 C31.85844727 10.99683105 30.59677734 10.95606445 29.296875 10.9140625 C28.28466888 10.88220352 28.28466888 10.88220352 27.25201416 10.84970093 C25.81945627 10.80334338 24.38697988 10.7544077 22.95458984 10.703125 C20.77327945 10.62582496 18.59182889 10.55837363 16.41015625 10.4921875 C15.01820928 10.44590686 13.62628132 10.39905 12.234375 10.3515625 C10.96819336 10.30854004 9.70201172 10.26551758 8.39746094 10.22119141 C5.49339294 10.03212231 2.82802067 9.66014121 0 9 C0 6.03 0 3.06 0 0 Z " fill="#CFCFCF" transform="translate(87,69)"/>
<path d="M0 0 C0.99 0 1.98 0 3 0 C3 0.99 3 1.98 3 3 C4.07378906 2.96519531 5.14757812 2.93039063 6.25390625 2.89453125 C7.69008839 2.86637082 9.12628762 2.83907309 10.5625 2.8125 C11.26697266 2.78736328 11.97144531 2.76222656 12.69726562 2.73632812 C17.76857947 2.6662178 21.49224859 3.43676881 26 6 C27.99609375 8.48046875 27.99609375 8.48046875 29.4375 11.1875 C29.93121094 12.08855469 30.42492187 12.98960937 30.93359375 13.91796875 C31.28550781 14.60503906 31.63742188 15.29210937 32 16 C33.24394531 15.9278125 34.48789063 15.855625 35.76953125 15.78125 C44.51875277 15.28819995 53.23268508 14.82268352 62 15 C62.495 16.98 62.495 16.98 63 19 C49.14 20.485 49.14 20.485 35 22 C34.67 23.32 34.34 24.64 34 26 C31.5625 24.4375 31.5625 24.4375 29 22 C28.61250787 19.67504723 28.28241883 17.3400417 28 15 C25.69618995 10.46168677 25.69618995 10.46168677 21.4375 8.0625 C18.85865616 7.85798068 18.85865616 7.85798068 16 9 C16.99 9.66 17.98 10.32 19 11 C18.67 11.66 18.34 12.32 18 13 C15.36 11.68 12.72 10.36 10 9 C10.99 8.67 11.98 8.34 13 8 C13 7.34 13 6.68 13 6 C11.783125 6.33 10.56625 6.66 9.3125 7 C6.12789396 7.80322213 3.3027157 8.20641973 0 8 C0 5.36 0 2.72 0 0 Z M63 13 C63.66 13.33 64.32 13.66 65 14 C64.01 14 63.02 14 62 14 C62.33 13.67 62.66 13.34 63 13 Z " fill="#292929" transform="translate(61,155)"/>
<path d="M0 0 C0.33 0 0.66 0 1 0 C0.99214478 1.51352051 0.99214478 1.51352051 0.98413086 3.05761719 C0.96600738 6.80728262 0.95454112 10.55694418 0.94506836 14.30664062 C0.94004495 15.92839204 0.93322506 17.55013895 0.92456055 19.171875 C0.91240771 21.50521969 0.90675172 23.8385044 0.90234375 26.171875 C0.89718246 26.89493835 0.89202118 27.61800171 0.88670349 28.36297607 C0.88632816 31.74401563 1.04505537 34.75468035 2 38 C2.06743348 40.08234592 2.08514472 42.16668557 2.0625 44.25 C2.05347656 45.32765625 2.04445313 46.4053125 2.03515625 47.515625 C2.01775391 48.74539062 2.01775391 48.74539062 2 50 C2.61359375 50.2990625 3.2271875 50.598125 3.859375 50.90625 C6.14228376 52.07269973 8.05347051 53.33154615 10 55 C10 55.66 10 56.32 10 57 C14.62 57 19.24 57 24 57 C24 57.66 24 58.32 24 59 C9.07086614 62.02362205 9.07086614 62.02362205 3 60 C2.67 59.34 2.34 58.68 2 58 C1.34 58.99 0.68 59.98 0 61 C-2.37965134 56.07577099 -3.37205735 52.54560492 -3.328125 46.984375 C-3.32670502 46.33464218 -3.32528503 45.68490936 -3.32382202 45.01548767 C-3.31476366 42.92653826 -3.28337591 40.8386906 -3.25 38.75 C-3.2367426 37.31096027 -3.22421366 35.87191365 -3.21240234 34.43286133 C-3.13281227 26.51566435 -2.97804071 18.59752027 -2.625 10.6875 C-2.59438477 9.93114258 -2.56376953 9.17478516 -2.53222656 8.39550781 C-2.32613228 4.7828964 -2.05641877 3.08462815 0 0 Z " fill="#1F1F1F" transform="translate(86,81)"/>
<path d="M0 0 C0 27.06 0 54.12 0 82 C-0.66 82 -1.32 82 -2 82 C-5.88603355 68.78748593 -5.15872099 54.77676407 -5.13037109 41.13500977 C-5.12501727 38.07237789 -5.13034083 35.00989302 -5.13671875 31.94726562 C-5.14807336 7.58397494 -5.14807336 7.58397494 -4 1 C-2 0 -2 0 0 0 Z " fill="#7D7D7D" transform="translate(58,77)"/>
<path d="M0 0 C0.95672607 0.01313232 1.91345215 0.02626465 2.89916992 0.03979492 C5.87109756 0.08990968 8.84132451 0.16700353 11.8125 0.25 C12.74610352 0.27078613 13.67970703 0.29157227 14.64160156 0.31298828 C17.30375887 0.37700525 19.96390216 0.46430638 22.625 0.5625 C23.41737061 0.58473633 24.20974121 0.60697266 25.02612305 0.62988281 C32.48724571 0.98062272 38.96852395 3.37994553 45.8125 6.25 C45.8125 6.58 45.8125 6.91 45.8125 7.25 C43.47955225 7.29241723 41.14547433 7.29092937 38.8125 7.25 C38.3175 6.755 38.3175 6.755 37.8125 6.25 C34.85049688 6.03800773 31.90337558 5.87338774 28.9375 5.75 C27.29410202 5.68099262 25.6508565 5.60822621 24.0078125 5.53125 C23.27578613 5.50095703 22.54375977 5.47066406 21.78955078 5.43945312 C19.8125 5.25 19.8125 5.25 16.8125 4.25 C16.8125 4.91 16.8125 5.57 16.8125 6.25 C17.8025 6.58 18.7925 6.91 19.8125 7.25 C19.8125 7.91 19.8125 8.57 19.8125 9.25 C19.1525 9.25 18.4925 9.25 17.8125 9.25 C17.4825 10.24 17.1525 11.23 16.8125 12.25 C16.214375 12.04375 15.61625 11.8375 15 11.625 C12.52799154 10.94328085 12.52799154 10.94328085 9.8125 13.25 C10.1425 11.27 10.4725 9.29 10.8125 7.25 C10.19761719 7.11722656 9.58273438 6.98445313 8.94921875 6.84765625 C8.14097656 6.67105469 7.33273438 6.49445312 6.5 6.3125 C5.69949219 6.13847656 4.89898437 5.96445312 4.07421875 5.78515625 C1.8125 5.25 1.8125 5.25 -1.1875 4.25 C-6.50126476 3.98866731 -10.160449 4.3921768 -15.1875 6.25 C-17.18119031 6.61920191 -19.18029077 6.96325582 -21.1875 7.25 C-15.20526891 0.31061194 -8.60617149 -0.20293631 0 0 Z " fill="#505050" transform="translate(116.1875,34.75)"/>
<path d="M0 0 C-0.99 0.495 -0.99 0.495 -2 1 C-1.95875 1.928125 -1.9175 2.85625 -1.875 3.8125 C-2 7 -2 7 -4 10 C-4.66 10 -5.32 10 -6 10 C-6 10.99 -6 11.98 -6 13 C-8.66666667 13.66666667 -11.33333333 14.33333333 -14 15 C-15.12148437 15.28037109 -15.12148437 15.28037109 -16.265625 15.56640625 C-16.83796875 15.70949219 -17.4103125 15.85257813 -18 16 C-18.66 15.01 -19.32 14.02 -20 13 C-18.68 12.34 -17.36 11.68 -16 11 C-19.96 11 -23.92 11 -28 11 C-26.125 2.125 -26.125 2.125 -25 1 C-16.69649368 0.05269858 -8.34952325 -0.15335859 0 0 Z " fill="#383838" transform="translate(83,64)"/>
<path d="M0 0 C5.28 0 10.56 0 16 0 C14 1 12 2 10 3 C11.12416639 4.23267071 11.12416639 4.23267071 13.5625 5.25 C14.366875 5.8275 15.17125 6.405 16 7 C16.3125 9.6875 16.3125 9.6875 16 12 C15.34 12 14.68 12 14 12 C13.34 13.98 12.68 15.96 12 18 C11.31292445 15.50935112 11 13.62113708 11 11 C10.67 11.33 10.34 11.66 10 12 C10 12.825 10 13.65 10 14.5 C10 15.325 10 16.15 10 17 C9.67 17.33 9.34 17.66 9 18 C9.66 18.33 10.32 18.66 11 19 C10.67 20.65 10.34 22.3 10 24 C8.35 24.33 6.7 24.66 5 25 C4.67 26.32 4.34 27.64 4 29 C3.01 29 2.02 29 1 29 C0.67 27.02 0.34 25.04 0 23 C1.32 22.67 2.64 22.34 4 22 C3.34 21.34 2.68 20.68 2 20 C1.66666667 14.66666667 1.66666667 14.66666667 3 12 C2.01 12 1.02 12 0 12 C-0.33 10.35 -0.66 8.7 -1 7 C-0.01 7 0.98 7 2 7 C2.33 6.67 2.66 6.34 3 6 C3 5.34 3 4.68 3 4 C2.34 4 1.68 4 1 4 C0.67 2.68 0.34 1.36 0 0 Z " fill="#494B4A" transform="translate(96,81)"/>
<path d="M0 0 C0.33 1.32 0.66 2.64 1 4 C2.32 4.33 3.64 4.66 5 5 C4.01 4.01 3.02 3.02 2 2 C7.08142624 0.79423784 7.08142624 0.79423784 10 1 C14.36111674 4.79227543 15.79415874 8.29965951 17 14 C17 14.66 17 15.32 17 16 C17.825 16.639375 18.65 17.27875 19.5 17.9375 C20.325 18.618125 21.15 19.29875 22 20 C22 20.99 22 21.98 22 23 C20.35 22.34 18.7 21.68 17 21 C17 20.34 17 19.68 17 19 C16.030625 19.185625 15.06125 19.37125 14.0625 19.5625 C11.15781034 19.57416542 10.15290322 19.12694917 7.8828125 17.2421875 C6.38074178 15.66528051 4.89439367 14.07328759 3.421875 12.46875 C-0.28635519 8.68874761 -4.57404209 5.87363864 -9 3 C-8.67 2.34 -8.34 1.68 -8 1 C-5.30114269 0.42577504 -2.76207303 0 0 0 Z " fill="#4D4D4D" transform="translate(74,161)"/>
<path d="M0 0 C0.66 0.33 1.32 0.66 2 1 C1.01 1 0.02 1 -1 1 C-0.67 0.67 -0.34 0.34 0 0 Z M-1 2 C-0.67 3.32 -0.34 4.64 0 6 C-24.32850375 9.19436392 -24.32850375 9.19436392 -32 7 C-32 6.34 -32 5.68 -32 5 C-21.66396066 2.45835098 -11.62478501 1.81504243 -1 2 Z " fill="#222222" transform="translate(124,168)"/>
<path d="M0 0 C0.33 0 0.66 0 1 0 C1.05534912 1.16982422 1.11069824 2.33964844 1.16772461 3.54492188 C1.37524019 7.91356345 1.5868094 12.28200115 1.79956055 16.65039062 C1.89082431 18.53575463 1.98101043 20.42117114 2.07006836 22.30664062 C2.19877668 25.0274914 2.33144763 27.7481255 2.46484375 30.46875 C2.50343002 31.30241089 2.5420163 32.13607178 2.58177185 32.99499512 C2.77187164 36.80130215 3.03606487 40.56157797 3.52734375 44.34179688 C4.04161841 48.32211274 4.09828735 51.99181716 4.0625 56 C4.05798828 56.67933594 4.05347656 57.35867187 4.04882812 58.05859375 C4.0372283 59.70576874 4.01930199 61.35289726 4 63 C3.34 63 2.68 63 2 63 C-0.16260253 55.99586172 -0.2601452 49.48418352 -0.1953125 42.1875 C-0.1924826 40.97803711 -0.18965271 39.76857422 -0.18673706 38.52246094 C-0.17559396 34.68153752 -0.15049983 30.84085225 -0.125 27 C-0.11496263 24.38672213 -0.1058381 21.77344059 -0.09765625 19.16015625 C-0.07567383 12.77335704 -0.04225475 6.38669554 0 0 Z " fill="#949494" transform="translate(54,96)"/>
<path d="M0 0 C5.31365314 -0.35424354 5.31365314 -0.35424354 7.9375 1 C9.66261929 4.24728337 8.93051755 7.52979921 8 11 C7.34 11.99 6.68 12.98 6 14 C5.34 13.67 4.68 13.34 4 13 C4.33 10.36 4.66 7.72 5 5 C4.19892822 4.97494385 3.39785645 4.9498877 2.57250977 4.92407227 C-1.09762026 4.80720265 -4.76755017 4.68489255 -8.4375 4.5625 C-9.69755859 4.52318359 -10.95761719 4.48386719 -12.25585938 4.44335938 C-18.88901607 4.21821306 -25.4170589 3.85241566 -32 3 C-32 5.97 -32 8.94 -32 12 C-32.99 12 -33.98 12 -35 12 C-35.125 4.25 -35.125 4.25 -34 2 C-22.45 2 -10.9 2 1 2 C0.505 1.01 0.505 1.01 0 0 Z " fill="#3A3A3A" transform="translate(119,66)"/>
<path d="M0 0 C4.47987423 0.08155056 8.95845373 0.19433701 13.4375 0.3125 C14.69755859 0.33505859 15.95761719 0.35761719 17.25585938 0.38085938 C24.36668185 0.58508665 30.43502173 1.20312939 37 4 C38.010625 4.391875 39.02125 4.78375 40.0625 5.1875 C41.0215625 5.5896875 41.0215625 5.5896875 42 6 C42 6.33 42 6.66 42 7 C39.66705225 7.04241723 37.33297433 7.04092937 35 7 C34.505 6.505 34.505 6.505 34 6 C32.16986858 5.8075924 30.33327144 5.67604728 28.49609375 5.5703125 C27.36236328 5.49683594 26.22863281 5.42335938 25.06054688 5.34765625 C22.67289366 5.20092177 20.28486527 5.06015238 17.89648438 4.92578125 C11.34904792 4.49002406 5.99358244 3.71155893 0 1 C0 0.67 0 0.34 0 0 Z " fill="#898989" transform="translate(120,35)"/>
<path d="M0 0 C3.64683726 3.54264191 4.97514136 7.06204474 6 12 C5.67 12.66 5.34 13.32 5 14 C2.9375 14.625 2.9375 14.625 1 15 C1.33 13.02 1.66 11.04 2 9 C1.67 9.99 1.34 10.98 1 12 C-1 12 -1 12 -3.625 9.75 C-6 7 -6 7 -6 3 C-7.4166747 1.2488427 -7.4166747 1.2488427 -9 0 C-5.66265179 -1.1124494 -3.33742814 -1.16809985 0 0 Z " fill="#3A3A3A" transform="translate(85,163)"/>
<path d="M0 0 C0 0.33 0 0.66 0 1 C-12.375 1.495 -12.375 1.495 -25 2 C-25.33 3.32 -25.66 4.64 -26 6 C-30.62 6 -35.24 6 -40 6 C-38 2 -38 2 -34.5 0.8125 C-23.29378207 -1.4609338 -11.26791852 -2.09635693 0 0 Z " fill="#646464" transform="translate(74,75)"/>
<path d="M0 0 C0.33 0 0.66 0 1 0 C1 22.11 1 44.22 1 67 C0.67 67 0.34 67 0 67 C-2.14778829 54.42009716 -2.14778829 54.42009716 -2.0625 49.625 C-1.89584361 46.04912323 -1.89584361 46.04912323 -2.51513672 42.75415039 C-3.02353303 38.81779084 -2.94552866 35.2669353 -2.6953125 31.30859375 C-2.65187714 30.60025894 -2.60844177 29.89192413 -2.56369019 29.16212463 C-2.47111468 27.67533416 -2.3751312 26.18875227 -2.27587891 24.70239258 C-2.12521291 22.44069608 -1.98555119 20.17852315 -1.84765625 17.91601562 C-1.09044974 5.93555527 -1.09044974 5.93555527 0 0 Z " fill="#575757" transform="translate(53,80)"/>
<path d="M0 0 C0.33 0 0.66 0 1 0 C1.07589768 6.2295758 1.12853504 12.45903295 1.16479492 18.68896484 C1.17990645 20.80945288 1.2003964 22.92990954 1.22631836 25.05029297 C1.26259786 28.09350311 1.27970242 31.13630103 1.29296875 34.1796875 C1.30845261 35.13181122 1.32393646 36.08393494 1.33988953 37.06491089 C1.34011612 37.94567291 1.34034271 38.82643494 1.34057617 39.73388672 C1.34723801 40.51110077 1.35389984 41.28831482 1.36076355 42.08908081 C1.24171158 42.71968414 1.12265961 43.35028748 1 44 C0.01 44.66 -0.98 45.32 -2 46 C-2.0493933 39.93108308 -2.08571643 33.86228287 -2.10986328 27.79321289 C-2.11992835 25.728088 -2.13358154 23.66297737 -2.15087891 21.59790039 C-2.17510493 18.63163736 -2.18647797 15.66556256 -2.1953125 12.69921875 C-2.20563507 11.7741301 -2.21595764 10.84904144 -2.22659302 9.8959198 C-2.22674408 9.03525406 -2.22689514 8.17458832 -2.22705078 7.2878418 C-2.231492 6.53061325 -2.23593323 5.7733847 -2.24050903 4.99320984 C-2 3 -2 3 0 0 Z " fill="#0C0C0C" transform="translate(86,81)"/>
<path d="M0 0 C3.62392364 3.62392364 4.13193986 9.07043218 5 14 C4.75 17.8125 4.75 17.8125 4 21 C3.814375 22.299375 3.62875 23.59875 3.4375 24.9375 C3.293125 25.948125 3.14875 26.95875 3 28 C2.34 27.34 1.68 26.68 1 26 C1.020625 24.96875 1.04125 23.9375 1.0625 22.875 C0.99307961 18.57093598 0.21514987 13.21514987 -3 10 C-3.04080783 8.00041636 -3.04254356 5.99954746 -3 4 C-2.34 4 -1.68 4 -1 4 C-0.67 2.68 -0.34 1.36 0 0 Z " fill="#444444" transform="translate(123,138)"/>
<path d="M0 0 C1.98 0.495 1.98 0.495 4 1 C3.67 1.66 3.34 2.32 3 3 C2.7726697 5.91289132 2.59842338 8.80907737 2.46484375 11.7265625 C2.42186661 12.58937836 2.37888947 13.45219421 2.33460999 14.34115601 C2.19804661 17.10225039 2.06770499 19.86359916 1.9375 22.625 C1.84611214 24.4948117 1.75432042 26.36460371 1.66210938 28.234375 C1.43671582 32.82270113 1.2169025 37.41126495 1 42 C0.34 42 -0.32 42 -1 42 C-1.0250883 37.94727542 -1.04303967 33.89458214 -1.05493164 29.84179688 C-1.05989951 28.46874197 -1.0666761 27.09569218 -1.07543945 25.72265625 C-1.12907915 17.08981994 -0.89797465 8.58897059 0 0 Z " fill="#202020" transform="translate(61,76)"/>
<path d="M0 0 C0.53625 0.350625 1.0725 0.70125 1.625 1.0625 C4.73274763 2.28924249 6.79431703 1.72856431 10 1 C10 2.32 10 3.64 10 5 C9.34 5 8.68 5 8 5 C8 5.66 8 6.32 8 7 C6.35178756 8.03013277 4.68496298 9.03114628 3 10 C3 10.33 3 10.66 3 11 C1.35 11 -0.3 11 -2 11 C-1.67 11.99 -1.34 12.98 -1 14 C-5.29 13.67 -9.58 13.34 -14 13 C-13.67 12.34 -13.34 11.68 -13 11 C-11.02 11 -9.04 11 -7 11 C-7 10.34 -7 9.68 -7 9 C-6.28972656 8.79503906 -5.57945313 8.59007812 -4.84765625 8.37890625 C-3.92855469 8.10949219 -3.00945312 7.84007812 -2.0625 7.5625 C-1.14597656 7.29566406 -0.22945312 7.02882812 0.71484375 6.75390625 C2.9402493 6.20973949 2.9402493 6.20973949 4 5 C3.34 5 2.68 5 2 5 C1.34 3.35 0.68 1.7 0 0 Z " fill="#454545" transform="translate(125,175)"/>
<path d="M0 0 C2.1075458 1.71129747 2.92720192 2.67222217 3.52416992 5.36010742 C3.59224854 6.26607666 3.66032715 7.1720459 3.73046875 8.10546875 C3.81103516 9.08837891 3.89160156 10.07128906 3.97460938 11.08398438 C4.04486328 12.10814453 4.11511719 13.13230469 4.1875 14.1875 C4.26935547 15.22326172 4.35121094 16.25902344 4.43554688 17.32617188 C4.63588559 19.88343663 4.82352787 22.44099564 5 25 C5.63421875 25.12246094 6.2684375 25.24492187 6.921875 25.37109375 C9 26 9 26 10.25 28.0625 C10.4975 28.701875 10.745 29.34125 11 30 C9.68 30 8.36 30 7 30 C7 29.01 7 28.02 7 27 C6.01 27 5.02 27 4 27 C4 28.65 4 30.3 4 32 C3.67 32 3.34 32 3 32 C0.58293459 21.18075485 -0.39782446 11.08014794 0 0 Z " fill="#323232" transform="translate(57,128)"/>
<path d="M0 0 C0.66 0 1.32 0 2 0 C2 3.63 2 7.26 2 11 C2.99 11.33 3.98 11.66 5 12 C5 12.66 5 13.32 5 14 C4.01 14 3.02 14 2 14 C2.020625 14.94875 2.04125 15.8975 2.0625 16.875 C2 20 2 20 1 22 C1.66 22 2.32 22 3 22 C3 23.32 3 24.64 3 26 C1.68 25.67 0.36 25.34 -1 25 C-1.02886984 21.02084841 -1.04675406 17.04172347 -1.0625 13.0625 C-1.07087891 11.92619141 -1.07925781 10.78988281 -1.08789062 9.61914062 C-1.09111328 8.53955078 -1.09433594 7.45996094 -1.09765625 6.34765625 C-1.10289307 5.34742432 -1.10812988 4.34719238 -1.11352539 3.31665039 C-1 1 -1 1 0 0 Z " fill="#93938F" transform="translate(39,103)"/>
<path d="M0 0 C0.99 0.33 1.98 0.66 3 1 C1.125 7.875 1.125 7.875 0 9 C0 9.99 0 10.98 0 12 C-0.66 12 -1.32 12 -2 12 C-2.28875 12.7425 -2.5775 13.485 -2.875 14.25 C-3.82302644 16.56739797 -4.84845911 18.77917115 -6 21 C-6.66 20.67 -7.32 20.34 -8 20 C-8 18.35 -8 16.7 -8 15 C-7.34 15 -6.68 15 -6 15 C-6.0928125 13.8553125 -6.0928125 13.8553125 -6.1875 12.6875 C-5.95939193 9.41795099 -5.21972521 9.21972521 -3 7 C-2.64080679 5.00448218 -2.30503431 3.00451121 -2 1 C-1.34 0.67 -0.68 0.34 0 0 Z " fill="#272727" transform="translate(83,64)"/>
<path d="M0 0 C-1.875 3.875 -1.875 3.875 -3 5 C1.29 5 5.58 5 10 5 C10 5.33 10 5.66 10 6 C8.9275 6.12375 7.855 6.2475 6.75 6.375 C3.20789315 6.7437969 3.20789315 6.7437969 1.1875 8.03125 C-1.85342382 9.37794483 -4.44295764 9.19114085 -7.75 9.125 C-8.92046875 9.10695312 -10.0909375 9.08890625 -11.296875 9.0703125 C-12.63492188 9.03550781 -12.63492188 9.03550781 -14 9 C-14 8.34 -14 7.68 -14 7 C-10.77484237 5.26337666 -7.48670834 4.1094072 -4 3 C-4 2.34 -4 1.68 -4 1 C-2 0 -2 0 0 0 Z " fill="#252525" transform="translate(137,179)"/>
<path d="M0 0 C0.33 0 0.66 0 1 0 C0.125 7.625 0.125 7.625 -1 11 C-2.32 10.67 -3.64 10.34 -5 10 C-5 8.02 -5 6.04 -5 4 C-11.93 3.67 -18.86 3.34 -26 3 C-26 2.67 -26 2.34 -26 2 C-17.42 2 -8.84 2 0 2 C0 1.34 0 0.68 0 0 Z " fill="#2A2A2A" transform="translate(125,78)"/>
<path d="M0 0 C0.33 0.99 0.66 1.98 1 3 C1.99 3 2.98 3 4 3 C3.67 3.99 3.34 4.98 3 6 C3.66 6.33 4.32 6.66 5 7 C4.67 8.65 4.34 10.3 4 12 C2.35 12.33 0.7 12.66 -1 13 C-1.33 14.32 -1.66 15.64 -2 17 C-2.99 17 -3.98 17 -5 17 C-5.33 15.02 -5.66 13.04 -6 11 C-4.68 10.67 -3.36 10.34 -2 10 C-1.34 6.7 -0.68 3.4 0 0 Z " fill="#3E3F3F" transform="translate(102,93)"/>
<path d="M0 0 C0.99 0 1.98 0 3 0 C3 0.99 3 1.98 3 3 C4.05960937 3.04898438 5.11921875 3.09796875 6.2109375 3.1484375 C7.59898497 3.22346709 8.98700451 3.29901485 10.375 3.375 C11.07367188 3.4059375 11.77234375 3.436875 12.4921875 3.46875 C17.7734375 3.7734375 17.7734375 3.7734375 20 6 C17.60468244 6.33745354 15.20885732 6.6700829 12.8125 7 C11.80219727 7.14308594 11.80219727 7.14308594 10.77148438 7.2890625 C7.15335423 7.78324613 3.65203599 8.11346131 0 8 C0 5.36 0 2.72 0 0 Z " fill="#202020" transform="translate(61,155)"/>
<path d="M0 0 C0.66 0 1.32 0 2 0 C2.09706112 6.11485027 1.77040851 11.93303301 1 18 C0.34 18 -0.32 18 -1 18 C-1.33218192 21.00259517 -1.33218192 21.00259517 0.5 22.6875 C1.2425 23.3371875 1.2425 23.3371875 2 24 C0.625 25.5 0.625 25.5 -1 27 C-1.66 27 -2.32 27 -3 27 C-3 21.06 -3 15.12 -3 9 C-2.01 9.495 -2.01 9.495 -1 10 C-1.0309375 8.3603125 -1.0309375 8.3603125 -1.0625 6.6875 C-1 3 -1 3 0 0 Z " fill="#302F2D" transform="translate(37,107)"/>
<path d="M0 0 C0 3.6959107 -0.83487616 6.50462849 -2 10 C-4.14587384 11.315213 -5.47013105 12 -8 12 C-8 13.65 -8 15.3 -8 17 C-8.99 16.67 -9.98 16.34 -11 16 C-8.70418873 8.58276359 -6.92694462 4.00223467 0 0 Z " fill="#363636" transform="translate(95,43)"/>
<path d="M0 0 C0.33 0 0.66 0 1 0 C1.05534912 0.71019287 1.11069824 1.42038574 1.16772461 2.15209961 C1.42280682 5.41401979 1.68013822 8.67575892 1.9375 11.9375 C2.02451172 13.05447266 2.11152344 14.17144531 2.20117188 15.32226562 C2.69537842 21.56391121 3.26804273 27.78166031 4 34 C3.34 34 2.68 34 2 34 C0.28840584 26.1839773 -0.25821386 18.8002077 -0.125 10.8125 C-0.11597656 9.76513672 -0.10695312 8.71777344 -0.09765625 7.63867188 C-0.07440075 5.09219486 -0.04172569 2.54622969 0 0 Z " fill="#242424" transform="translate(60,119)"/>
<path d="M0 0 C0.79921875 0.01804688 1.5984375 0.03609375 2.421875 0.0546875 C3.02515625 0.07789063 3.6284375 0.10109375 4.25 0.125 C3.92 1.775 3.59 3.425 3.25 5.125 C-0.05 5.455 -3.35 5.785 -6.75 6.125 C-7.41 4.805 -8.07 3.485 -8.75 2.125 C-5.68753253 0.34090198 -3.52920727 -0.10380021 0 0 Z " fill="#4B4B4B" transform="translate(43.75,154.875)"/>
<path d="M0 0 C9.41213252 -0.12873737 18.62087413 0.20177652 28 1 C28 1.33 28 1.66 28 2 C10.14350797 2.18451025 10.14350797 2.18451025 2 1 C2 3.97 2 6.94 2 10 C1.01 10 0.02 10 -1 10 C-1.125 2.25 -1.125 2.25 0 0 Z " fill="#8C8C8C" transform="translate(85,68)"/>
<path d="M0 0 C0.66 0 1.32 0 2 0 C2 0.66 2 1.32 2 2 C2.99 2 3.98 2 5 2 C5.33 3.32 5.66 4.64 6 6 C5.01 6.495 5.01 6.495 4 7 C2.49284262 11.50286525 1.69381036 16.25406051 2 21 C0.04933807 19.38819592 -0.92886446 18.56985222 -1.2487793 16.00708008 C-1.16237183 14.89949341 -1.16237183 14.89949341 -1.07421875 13.76953125 C-1.01943359 12.96708984 -0.96464844 12.16464844 -0.90820312 11.33789062 C-0.83537109 10.50451172 -0.76253906 9.67113281 -0.6875 8.8125 C-0.62626953 7.96751953 -0.56503906 7.12253906 -0.50195312 6.25195312 C-0.34881209 4.16687905 -0.17625843 2.08324724 0 0 Z " fill="#3E3E3C" transform="translate(35,97)"/>
<path d="M0 0 C2 4 2 4 3 14 C-4.26 14 -11.52 14 -19 14 C-19 13.67 -19 13.34 -19 13 C-13.39 13 -7.78 13 -2 13 C-2 12.01 -2 11.02 -2 10 C-1.34 10 -0.68 10 0 10 C0 6.7 0 3.4 0 0 Z " fill="#525252" transform="translate(58,149)"/>
<path d="M0 0 C0.33 0 0.66 0 1 0 C0.67 10.23 0.34 20.46 0 31 C-0.33 31 -0.66 31 -1 31 C-2.89449541 4.34174312 -2.89449541 4.34174312 0 0 Z " fill="#171717" transform="translate(86,81)"/>
<path d="M0 0 C0.33 0 0.66 0 1 0 C2.70415912 11.9553317 1.64217123 23.99532966 1 36 C0.67 36 0.34 36 0 36 C-0.19990833 32.06302985 -0.38259453 28.12543088 -0.5625 24.1875 C-0.61857422 23.08728516 -0.67464844 21.98707031 -0.73242188 20.85351562 C-1.04442321 13.80228549 -0.8446925 7.00856958 0 0 Z " fill="#313131" transform="translate(62,108)"/>
<path d="M0 0 C0.804375 0.5259375 0.804375 0.5259375 1.625 1.0625 C4.73274763 2.28924249 6.79431703 1.72856431 10 1 C10 2.32 10 3.64 10 5 C9.34 5 8.68 5 8 5 C8 5.66 8 6.32 8 7 C3.545 8.485 3.545 8.485 -1 10 C0 7 0 7 2.0625 5.8125 C2.701875 5.544375 3.34125 5.27625 4 5 C3.34 5 2.68 5 2 5 C1.34 3.35 0.68 1.7 0 0 Z " fill="#5B5B5B" transform="translate(125,175)"/>
<path d="M0 0 C1.24327778 5.84340558 0.57300962 10.26696495 -1 16 C-1.66 15.34 -2.32 14.68 -3 14 C-3 11.66666667 -3 9.33333333 -3 7 C-3.91114536 3.67813829 -3.91114536 3.67813829 -5 1 C-2 0 -2 0 0 0 Z " fill="#303030" transform="translate(127,150)"/>
<path d="M0 0 C3.96 0.33 7.92 0.66 12 1 C12 1.99 12 2.98 12 4 C7.38 4 2.76 4 -2 4 C-1.34 2.68 -0.68 1.36 0 0 Z " fill="#838383" transform="translate(36,77)"/>
<path d="M0 0 C3.51035302 0.94554964 4.74013186 1.55809863 6.6171875 4.75 C7.03226562 5.8225 7.44734375 6.895 7.875 8 C8.30554688 9.0725 8.73609375 10.145 9.1796875 11.25 C10 14 10 14 9 16 C8.60167969 15.39671875 8.20335938 14.7934375 7.79296875 14.171875 C7.26316406 13.37265625 6.73335938 12.5734375 6.1875 11.75 C5.66542969 10.96109375 5.14335938 10.1721875 4.60546875 9.359375 C3.04441009 6.99717227 3.04441009 6.99717227 1.30078125 4.890625 C0 3 0 3 0 0 Z " fill="#848484" transform="translate(84,156)"/>
<path d="M0 0 C0 0.33 0 0.66 0 1 C-2.33294775 1.04241723 -4.66702567 1.04092937 -7 1 C-7.33 0.67 -7.66 0.34 -8 0 C-9.34015221 -0.15582303 -10.68758903 -0.25044142 -12.03515625 -0.31640625 C-12.84404297 -0.35830078 -13.65292969 -0.40019531 -14.48632812 -0.44335938 C-15.33646484 -0.48267578 -16.18660156 -0.52199219 -17.0625 -0.5625 C-17.91650391 -0.60568359 -18.77050781 -0.64886719 -19.65039062 -0.69335938 C-21.76672037 -0.79976702 -23.88333813 -0.90041731 -26 -1 C-26 -1.33 -26 -1.66 -26 -2 C-6.79057279 -4.28878282 -6.79057279 -4.28878282 0 0 Z " fill="#7B7B7B" transform="translate(162,41)"/>
<path d="M0 0 C0.33 0.99 0.66 1.98 1 3 C1.66 3.33 2.32 3.66 3 4 C1.25008666 4.02715383 -0.49994945 4.04646551 -2.25 4.0625 C-3.71179688 4.07990234 -3.71179688 4.07990234 -5.203125 4.09765625 C-7.65758678 4.01195577 -9.66168914 3.70706066 -12 3 C-12 2.34 -12 1.68 -12 1 C-7.93631321 0.22596442 -4.13574827 -0.0984702 0 0 Z " fill="#1A1A1A" transform="translate(104,172)"/>
<path d="M0 0 C0 0.33 0 0.66 0 1 C-0.90363281 1.12117188 -1.80726562 1.24234375 -2.73828125 1.3671875 C-3.91777344 1.53476562 -5.09726563 1.70234375 -6.3125 1.875 C-7.48425781 2.03742187 -8.65601562 2.19984375 -9.86328125 2.3671875 C-13.14530895 2.82300621 -13.14530895 2.82300621 -16 5 C-18.1875 4.625 -18.1875 4.625 -20 4 C-13.47079799 -1.54982171 -8.23186578 -1.38569741 0 0 Z " fill="#474747" transform="translate(115,37)"/>
<path d="M0 0 C0.66 0.33 1.32 0.66 2 1 C2 2.98 2 4.96 2 7 C4.64 7 7.28 7 10 7 C10.33 7.66 10.66 8.32 11 9 C8.36 9.66 5.72 10.32 3 11 C3 10.34 3 9.68 3 9 C1.68 8.34 0.36 7.68 -1 7 C-1 6.34 -1 5.68 -1 5 C-0.34 5 0.32 5 1 5 C0.34 3.68 -0.32 2.36 -1 1 C-0.67 0.67 -0.34 0.34 0 0 Z " fill="#3A3A3A" transform="translate(82,71)"/>
<path d="M0 0 C2.475 0.99 2.475 0.99 5 2 C5.25 4.25 5.25 4.25 5 7 C3 9.3125 3 9.3125 1 11 C0.63890458 9.35567294 0.28629924 7.7094792 -0.0625 6.0625 C-0.25972656 5.14597656 -0.45695313 4.22945313 -0.66015625 3.28515625 C-0.77230469 2.53105469 -0.88445312 1.77695313 -1 1 C-0.67 0.67 -0.34 0.34 0 0 Z " fill="#535353" transform="translate(154,81)"/>
<path d="M0 0 C1.32 0 2.64 0 4 0 C4.3125 2.3125 4.3125 2.3125 4 5 C1.5 6.8125 1.5 6.8125 -1 8 C-1.66 7.01 -2.32 6.02 -3 5 C-1.75 2.5 -1.75 2.5 0 0 Z " fill="#3D3D3D" transform="translate(179,153)"/>
<path d="M0 0 C0.33 0 0.66 0 1 0 C1.33 1.65 1.66 3.3 2 5 C2.33 5 2.66 5 3 5 C3 10.61 3 16.22 3 22 C2.67 22 2.34 22 2 22 C-0.01670288 14.56340812 -0.2137731 7.68395543 0 0 Z " fill="#969696" transform="translate(54,131)"/>
<path d="M0 0 C2.31 0.33 4.62 0.66 7 1 C7 1.33 7 1.66 7 2 C5.02 2 3.04 2 1 2 C2.32 2.66 3.64 3.32 5 4 C5 5.98 5 7.96 5 10 C3.02 8.68 1.04 7.36 -1 6 C-0.67 4.02 -0.34 2.04 0 0 Z " fill="#232323" transform="translate(91,171)"/>
<path d="M0 0 C0 0.33 0 0.66 0 1 C-1.0725 1.12375 -2.145 1.2475 -3.25 1.375 C-6.81814723 1.77339909 -6.81814723 1.77339909 -9.0625 3.0625 C-11.74173845 4.3589057 -14.06820212 4.13326354 -17 4 C-17 3.01 -17 2.02 -17 1 C-11.29014022 0.25983299 -5.75813575 -0.10469338 0 0 Z " fill="#343434" transform="translate(147,184)"/>
<path d="M0 0 C1.00289062 0.28746094 2.00578125 0.57492188 3.0390625 0.87109375 C3.80992188 1.09925781 4.58078125 1.32742187 5.375 1.5625 C5.045 2.5525 4.715 3.5425 4.375 4.5625 C-0.91298182 4.14775633 -3.74190718 3.21025386 -7.625 -0.4375 C-4.72405209 -1.88797396 -3.06527404 -0.89106803 0 0 Z " fill="#4D4D4D" transform="translate(103.625,184.4375)"/>
<path d="M0 0 C0.33 0 0.66 0 1 0 C1.875 3.1875 1.875 3.1875 2 7 C0.21974097 9.21299892 -1.60637719 10.38796831 -4 12 C-4.93065133 9.39417629 -5.14917407 8.35801776 -4.0625 5.75 C-3.5365625 4.88375 -3.5365625 4.88375 -3 4 C-2.01 4 -1.02 4 0 4 C0 2.68 0 1.36 0 0 Z " fill="#5D5D5D" transform="translate(189,84)"/>
<path d="M0 0 C2 2 2 2 2.125 4.625 C2.08375 5.40875 2.0425 6.1925 2 7 C2.66 7 3.32 7 4 7 C4 7.66 4 8.32 4 9 C4.66 9.33 5.32 9.66 6 10 C5.01 10 4.02 10 3 10 C3 10.66 3 11.32 3 12 C1.68 12.33 0.36 12.66 -1 13 C-0.34 11.02 0.32 9.04 1 7 C0.34 7 -0.32 7 -1 7 C-0.67 4.69 -0.34 2.38 0 0 Z " fill="#33322F" transform="translate(41,118)"/>
<path d="M0 0 C-0.33 2.31 -0.66 4.62 -1 7 C-0.34 7 0.32 7 1 7 C1 8.32 1 9.64 1 11 C-0.32 10.67 -1.64 10.34 -3 10 C-3 7.03 -3 4.06 -3 1 C-1 0 -1 0 0 0 Z " fill="#878681" transform="translate(41,118)"/>
<path d="M0 0 C4.62 0 9.24 0 14 0 C14 0.33 14 0.66 14 1 C12.02 1.33 10.04 1.66 8 2 C9.65 2.33 11.3 2.66 13 3 C13 3.33 13 3.66 13 4 C10.03 4 7.06 4 4 4 C4 3.34 4 2.68 4 2 C2.68 1.34 1.36 0.68 0 0 Z " fill="#3A3A3A" transform="translate(104,185)"/>
<path d="M0 0 C0.33 0 0.66 0 1 0 C1.09765625 6.15234375 1.09765625 6.15234375 1 8 C0 9 0 9 -1.84765625 9.09765625 C-3.8984375 9.06510417 -5.94921875 9.03255208 -8 9 C-8.33 8.34 -8.66 7.68 -9 7 C-7.02 7 -5.04 7 -3 7 C-2.67 6.34 -2.34 5.68 -2 5 C-1.67 5 -1.34 5 -1 5 C-0.67 3.35 -0.34 1.7 0 0 Z " fill="#B0B0B0" transform="translate(123,71)"/>
<path d="M0 0 C1.65 0 3.3 0 5 0 C4 2 3 4 2 6 C1.34 6 0.68 6 0 6 C-0.33 6.99 -0.66 7.98 -1 9 C-2.60031344 5.79937313 -1.03173691 3.27728194 0 0 Z " fill="#343434" transform="translate(57,66)"/>
<path d="M0 0 C1.98 0 3.96 0 6 0 C5.01 0.495 5.01 0.495 4 1 C4 2.98 4 4.96 4 7 C3.01 7.33 2.02 7.66 1 8 C0.67 5.36 0.34 2.72 0 0 Z " fill="#4A4A4A" transform="translate(77,64)"/>
<path d="M0 0 C0.66 0 1.32 0 2 0 C1.125 4.75 1.125 4.75 0 7 C-0.66 7 -1.32 7 -2 7 C-2.33 7.99 -2.66 8.98 -3 10 C-3.99 9.67 -4.98 9.34 -6 9 C-5.05016642 7.49460339 -4.08988109 5.99579653 -3.125 4.5 C-2.59132812 3.6646875 -2.05765625 2.829375 -1.5078125 1.96875 C-0.76144531 0.99421875 -0.76144531 0.99421875 0 0 Z " fill="#585858" transform="translate(146,160)"/>
<path d="M0 0 C1.32 0 2.64 0 4 0 C3.25 6.625 3.25 6.625 1 10 C0.34 10 -0.32 10 -1 10 C-0.34 7.69 0.32 5.38 1 3 C0.34 3 -0.32 3 -1 3 C-0.67 2.01 -0.34 1.02 0 0 Z " fill="#424242" transform="translate(123,42)"/>
<path d="M0 0 C0.66 0 1.32 0 2 0 C2.33 0.33 2.66 0.66 3 1 C3.99 0.67 4.98 0.34 6 0 C5.67 2.64 5.34 5.28 5 8 C4.34 7.34 3.68 6.68 3 6 C3.33 5.34 3.66 4.68 4 4 C2.68 4.33 1.36 4.66 0 5 C0 3.35 0 1.7 0 0 Z " fill="#353434" transform="translate(44,112)"/>
<path d="M0 0 C2.31 0 4.62 0 7 0 C6.01 0.495 6.01 0.495 5 1 C5 3.31 5 5.62 5 8 C3.02 8.33 1.04 8.66 -1 9 C-1 8.34 -1 7.68 -1 7 C-0.34 7 0.32 7 1 7 C1.309375 6.38125 1.61875 5.7625 1.9375 5.125 C2.625 3.75 3.3125 2.375 4 1 C2.68 0.67 1.36 0.34 0 0 Z " fill="#424242" transform="translate(58,65)"/>
<path d="M0 0 C2.1519437 3.22791555 2.20086443 4.28400809 2 8 C0.68 8 -0.64 8 -2 8 C-2.33 8.66 -2.66 9.32 -3 10 C-2.69201674 8.51988629 -2.378482 7.04092675 -2.0625 5.5625 C-1.88847656 4.73878906 -1.71445313 3.91507813 -1.53515625 3.06640625 C-1 1 -1 1 0 0 Z " fill="#3D3D3D" transform="translate(117,58)"/>
<path d="M0 0 C1.0625 1.8125 1.0625 1.8125 2 4 C1.67 4.99 1.34 5.98 1 7 C0.34 7 -0.32 7 -1 7 C-1 8.65 -1 10.3 -1 12 C-1.99 11.67 -2.98 11.34 -4 11 C-2.7874262 7.27566618 -1.49140021 3.62197194 0 0 Z " fill="#4D4D4D" transform="translate(88,48)"/>
<path d="M0 0 C0.66 0 1.32 0 2 0 C1.34 3.3 0.68 6.6 0 10 C-1.32 10.33 -2.64 10.66 -4 11 C-2.68 7.37 -1.36 3.74 0 0 Z " fill="#555555" transform="translate(152,146)"/>
<path d="M0 0 C0 0.66 0 1.32 0 2 C-0.99 2 -1.98 2 -3 2 C-3.66 3.32 -4.32 4.64 -5 6 C-6.32 4.68 -7.64 3.36 -9 2 C-2.25 0 -2.25 0 0 0 Z " fill="#565656" transform="translate(74,161)"/>
<path d="M0 0 C3 3 3 3 3.1875 5.6875 C3.0946875 6.8321875 3.0946875 6.8321875 3 8 C2.34 8 1.68 8 1 8 C1 10.64 1 13.28 1 16 C0.67 16 0.34 16 0 16 C0 10.72 0 5.44 0 0 Z " fill="#3D3D3D" transform="translate(57,128)"/>
<path d="M0 0 C2.64 0 5.28 0 8 0 C8 0.66 8 1.32 8 2 C9.32 2.33 10.64 2.66 12 3 C7.71 2.67 3.42 2.34 -1 2 C-0.67 1.34 -0.34 0.68 0 0 Z " fill="#515151" transform="translate(112,186)"/>
<path d="M0 0 C2.475 0.495 2.475 0.495 5 1 C5.33 2.32 5.66 3.64 6 5 C4.35 5 2.7 5 1 5 C0.67 3.35 0.34 1.7 0 0 Z " fill="#373737" transform="translate(92,165)"/>
<path d="M0 0 C2.35333796 4.70667591 2.17102038 6.8693886 2 12 C0.68 12 -0.64 12 -2 12 C-2 11.34 -2 10.68 -2 10 C-1.34 10 -0.68 10 0 10 C0 6.7 0 3.4 0 0 Z " fill="#656565" transform="translate(58,149)"/>
<path d="M0 0 C1.0326802 2.78823655 1.04509293 3.8677274 0.0625 6.75 C-0.288125 7.4925 -0.63875 8.235 -1 9 C-3.1519437 5.77208445 -3.20086443 4.71599191 -3 1 C-2.01 0.67 -1.02 0.34 0 0 Z " fill="#555555" transform="translate(123,134)"/>
<path d="M0 0 C5.42857143 -0.36190476 5.42857143 -0.36190476 7.875 1.1875 C9.34781139 3.56036279 9.22223194 5.25913944 9 8 C7.29115995 6.37660195 5.62553283 4.70680947 4 3 C4 2.34 4 1.68 4 1 C2.68 0.67 1.36 0.34 0 0 Z " fill="#696969" transform="translate(119,66)"/>
<path d="M0 0 C0.33 0.66 0.66 1.32 1 2 C1.99 1.67 2.98 1.34 4 1 C4.33 2.32 4.66 3.64 5 5 C3.02 5.33 1.04 5.66 -1 6 C-1.625 4.125 -1.625 4.125 -2 2 C-1.34 1.34 -0.68 0.68 0 0 Z " fill="#626262" transform="translate(92,160)"/>
<path d="M0 0 C2.86724686 0.57344937 3.8614515 0.8614515 6 3 C5.67 3.66 5.34 4.32 5 5 C3.02 4.34 1.04 3.68 -1 3 C-0.67 2.01 -0.34 1.02 0 0 Z " fill="#414141" transform="translate(71,164)"/>
<path d="M0 0 C2.74277578 3.19990508 4.6302836 6.00499382 6 10 C5.34 10.66 4.68 11.32 4 12 C2.33333333 8.66666667 0.66666667 5.33333333 -1 2 C-0.67 1.34 -0.34 0.68 0 0 Z " fill="#313131" transform="translate(86,161)"/>
<path d="M0 0 C1.65 0.33 3.3 0.66 5 1 C4.34 1.66 3.68 2.32 3 3 C3.99 3.66 4.98 4.32 6 5 C5.67 5.66 5.34 6.32 5 7 C2.36 5.68 -0.28 4.36 -3 3 C-2.01 2.67 -1.02 2.34 0 2 C0 1.34 0 0.68 0 0 Z " fill="#2F2F2F" transform="translate(74,161)"/>
<path d="M0 0 C1.32 0.33 2.64 0.66 4 1 C3.67 2.65 3.34 4.3 3 6 C2.01 6 1.02 6 0 6 C0 4.02 0 2.04 0 0 Z " fill="#212121" transform="translate(107,124)"/>
<path d="M0 0 C0.33 0 0.66 0 1 0 C1.36923077 6.4 1.36923077 6.4 -0.5 9.4375 C-0.995 9.953125 -1.49 10.46875 -2 11 C-2.25 3.375 -2.25 3.375 0 0 Z " fill="#232323" transform="translate(86,81)"/>
<path d="M0 0 C3.3 0 6.6 0 10 0 C10.33 0.66 10.66 1.32 11 2 C10.34 2 9.68 2 9 2 C8.67 2.99 8.34 3.98 8 5 C7.608125 4.525625 7.21625 4.05125 6.8125 3.5625 C4.59191626 1.64820367 2.86624291 1.38733012 0 1 C0 0.67 0 0.34 0 0 Z " fill="#383838" transform="translate(45,76)"/>
<path d="M0 0 C0.66 0 1.32 0 2 0 C2.66 1.32 3.32 2.64 4 4 C0.04 3.67 -3.92 3.34 -8 3 C-8 2.67 -8 2.34 -8 2 C-6.865625 1.855625 -5.73125 1.71125 -4.5625 1.5625 C-1.19222799 1.38828522 -1.19222799 1.38828522 0 0 Z " fill="#454545" transform="translate(121,67)"/>
<path d="M0 0 C0.66 0 1.32 0 2 0 C2.33 0.66 2.66 1.32 3 2 C3.66 2 4.32 2 5 2 C5 2.66 5 3.32 5 4 C4.01 4.33 3.02 4.66 2 5 C1.34 5.66 0.68 6.32 0 7 C-1 6 -1 6 -1.125 3.5 C-1 1 -1 1 0 0 Z " fill="#4B4B4B" transform="translate(110,56)"/>
<path d="M0 0 C2.64 0.33 5.28 0.66 8 1 C8 1.66 8 2.32 8 3 C8.99 3.33 9.98 3.66 11 4 C11 4.66 11 5.32 11 6 C10.34 6 9.68 6 9 6 C9 5.34 9 4.68 9 4 C4.545 3.01 4.545 3.01 0 2 C0 1.34 0 0.68 0 0 Z " fill="#616161" transform="translate(125,38)"/>
<path d="M0 0 C0.93423645 3.01031744 1.04449911 3.86650268 0 7 C-0.99 7 -1.98 7 -3 7 C-2.38722388 4.03824877 -1.74627478 2.61941217 0 0 Z M-4 7 C-4 10 -4 10 -4 10 Z " fill="#363636" transform="translate(190,129)"/>
<path d="M0 0 C5.57142857 5.14285714 5.57142857 5.14285714 6 9 C5.01 9 4.02 9 3 9 C0 3.375 0 3.375 0 0 Z " fill="#545454" transform="translate(142,54)"/>
<path d="M0 0 C0.99 0 1.98 0 3 0 C3.33 0.99 3.66 1.98 4 3 C-1.94 3.495 -1.94 3.495 -8 4 C-6 2 -6 2 -2.875 1.875 C-1.92625 1.91625 -0.9775 1.9575 0 2 C0 1.34 0 0.68 0 0 Z " fill="#1E1E1E" transform="translate(120,171)"/>
<path d="M0 0 C0.99 0 1.98 0 3 0 C3.33 1.98 3.66 3.96 4 6 C3.01 6 2.02 6 1 6 C0.67 4.02 0.34 2.04 0 0 Z " fill="#B6B6B6" transform="translate(96,104)"/>
<path d="M0 0 C0.99 0.33 1.98 0.66 3 1 C3 3.31 3 5.62 3 8 C2.01 8.33 1.02 8.66 0 9 C0 6.03 0 3.06 0 0 Z " fill="#2D2D2D" transform="translate(114,119)"/>
<path d="M0 0 C0.99 0 1.98 0 3 0 C2.67 1.98 2.34 3.96 2 6 C1.34 6 0.68 6 0 6 C-1.125 2.25 -1.125 2.25 0 0 Z " fill="#393939" transform="translate(186,139)"/>
<path d="M0 0 C1.32 0.99 2.64 1.98 4 3 C3.67 4.98 3.34 6.96 3 9 C2.67 9 2.34 9 2 9 C2 7.35 2 5.7 2 4 C1.34 4 0.68 4 0 4 C0 3.34 0 2.68 0 2 C-0.66 1.67 -1.32 1.34 -2 1 C-1.34 0.67 -0.68 0.34 0 0 Z " fill="#2F2F2F" transform="translate(112,100)"/>
<path d="M0 0 C0.33 0.66 0.66 1.32 1 2 C-1.64 2.66 -4.28 3.32 -7 4 C-7.33 3.01 -7.66 2.02 -8 1 C-5.29120665 -0.35439668 -2.99066732 -0.06501451 0 0 Z " fill="#2F2F2F" transform="translate(92,78)"/>
<path d="M0 0 C0.99 0.33 1.98 0.66 3 1 C2.67 2.65 2.34 4.3 2 6 C1.67 5.34 1.34 4.68 1 4 C-0.65 4 -2.3 4 -4 4 C-2.68 2.68 -1.36 1.36 0 0 Z " fill="#C8C8C8" transform="translate(120,72)"/>
<path d="M0 0 C3.63 0 7.26 0 11 0 C11 0.33 11 0.66 11 1 C9.9275 1.144375 8.855 1.28875 7.75 1.4375 C5.08337051 1.83749442 2.58600271 2.27591924 0 3 C0 2.01 0 1.02 0 0 Z " fill="#C1C1C1" transform="translate(108,70)"/>
<path d="M0 0 C3.3 0 6.6 0 10 0 C7.81956172 2.18043828 6.97566473 2.56240225 4 3 C1.75 2.5625 1.75 2.5625 0 2 C0 1.34 0 0.68 0 0 Z " fill="#0E0E0E" transform="translate(92,173)"/>
<path d="M0 0 C2.2477975 2.05233685 3.0022242 3.00667261 4 6 C4.66 6.66 5.32 7.32 6 8 C4.35 7.67 2.7 7.34 1 7 C0.31292445 4.50935112 0 2.62113708 0 0 Z " fill="#474744" transform="translate(35,122)"/>
<path d="M0 0 C0 3 0 3 -2 5.1875 C-2.66 5.785625 -3.32 6.38375 -4 7 C-4 6.34 -4 5.68 -4 5 C-4.66 4.67 -5.32 4.34 -6 4 C-4.02 2.68 -2.04 1.36 0 0 Z " fill="#414141" transform="translate(95,43)"/>
<path d="M0 0 C0 0.99 0 1.98 0 3 C-2.64 2.34 -5.28 1.68 -8 1 C-8 0.67 -8 0.34 -8 0 C-4.71303767 -0.79953138 -3.28976808 -1.09658936 0 0 Z " fill="#444444" transform="translate(123,38)"/>
</svg>
